<svg xmlns="http://www.w3.org/2000/svg" width="32" height="30" fill="none" viewBox="0 0 32 30">
  <path fill="#000" d="M31.172 3.204a46.812 46.812 0 0 0-28.956-.782 2.887 2.887 0 0 0-2.11 3.581c.519 2.085 1.277 4.48 2.187 6.652.015.05.04.027.04-.024-.132-1.019.651-2.305 2.187-2.773a35.849 35.849 0 0 1 22.644.3 2.136 2.136 0 0 0 2.73-1.383c.91-2.93 1.278-4.918 1.369-5.416.015-.093-.067-.128-.091-.154ZM8.669 9.65c-1.118.234-2.664.6-3.824.986-2.319.8-2.211 3.622-.976 4.522.09-.523.651-1.235 1.276-1.476 2.316-.91 4.802-1.454 7.315-1.678-1.277-.519-2.523-1.262-3.774-2.355l-.017.001Zm18.464 5.65a27.544 27.544 0 0 0-21.418-.848c-1.104.417-1.795 1.76-1.104 3.036a49.655 49.655 0 0 0 4.1 6.25c-.218-.757.168-2.16 1.653-2.62 4.105-1.26 8.413-.726 11.276.433a2.174 2.174 0 0 0 2.595-.833 51.821 51.821 0 0 0 2.98-5.234c.04-.08 0-.141-.082-.183ZM20.48 25.417a12.854 12.854 0 0 1-3.255-2.344c-.442-.443-1.094-1.078-1.78-1.836-1.568 0-3.09.157-4.716.677-1.51.472-1.652 2.217-.991 3.128 1.118 1.393 1.902 2.145 3.153 3.438a3.57 3.57 0 0 0 4.974.024c.976-.976 1.577-1.628 2.68-2.878.066-.067.04-.183-.066-.209Z"/>
</svg>
